<?xml version="1.0" encoding="utf-8"?>
<!-- Generator: Adobe Illustrator 23.0.3, SVG Export Plug-In . SVG Version: 6.00 Build 0)  -->
<svg version="1.1" id="Слой_1" xmlns="http://www.w3.org/2000/svg" xmlns:xlink="http://www.w3.org/1999/xlink" x="0px" y="0px"
	 viewBox="0 0 300 46" style="enable-background:new 0 0 300 46;" xml:space="preserve">
<style type="text/css">
	.st0{fill:#F2F2F2;}
</style>
<g>
	<path class="st0" d="M1.12,35.22V1.6h15.44c1.64,0,3.16,0.34,4.55,1.02c1.39,0.68,2.58,1.56,3.57,2.65s1.78,2.34,2.34,3.74
		c0.57,1.4,0.85,2.82,0.85,4.24c0,1.96-0.43,3.78-1.28,5.47c-0.85,1.69-2.04,3.07-3.55,4.14l7.1,12.36H19.73l-5.92-10.32h-3.46
		v10.32H1.12z M10.36,16.85h5.82c0.57,0,1.1-0.32,1.59-0.95c0.49-0.63,0.73-1.52,0.73-2.65c0-1.17-0.28-2.06-0.85-2.67
		c-0.57-0.62-1.14-0.92-1.7-0.92h-5.59V16.85z"/>
	<path class="st0" d="M57.04,27.17v8.05H33.08V1.6h23.53v8.05h-14.3v4.74h12.22v7.48H42.32v5.3H57.04z"/>
	<path class="st0" d="M70.06,1.6h8.43l11.65,33.62h-9.38l-2.04-6.58h-8.95l-1.99,6.58h-9.42L70.06,1.6z M77.26,22.48l-2.98-10.42
		l-3.13,10.42H77.26z"/>
	<path class="st0" d="M91.09,18.12c0-2.05,0.39-4.07,1.16-6.06c0.77-1.99,1.9-3.77,3.39-5.35c1.48-1.58,3.28-2.86,5.4-3.84
		c2.11-0.98,4.53-1.47,7.24-1.47c3.25,0,6.07,0.67,8.45,2.01c2.38,1.34,4.16,3.12,5.33,5.33L115,13.77
		c-0.32-0.82-0.73-1.5-1.25-2.04c-0.52-0.54-1.1-0.96-1.73-1.28c-0.63-0.31-1.29-0.54-1.97-0.66c-0.68-0.13-1.33-0.19-1.97-0.19
		c-1.33,0-2.47,0.26-3.43,0.78c-0.96,0.52-1.75,1.2-2.37,2.04c-0.62,0.84-1.07,1.78-1.37,2.84c-0.3,1.06-0.45,2.11-0.45,3.15
		c0,1.17,0.17,2.29,0.52,3.36c0.35,1.07,0.85,2.02,1.52,2.84c0.66,0.82,1.48,1.48,2.44,1.97s2.04,0.73,3.24,0.73
		c0.63,0,1.28-0.07,1.94-0.21c0.66-0.14,1.3-0.38,1.92-0.71c0.62-0.33,1.17-0.76,1.66-1.28s0.88-1.16,1.16-1.92l7.53,4.5
		c-0.51,1.23-1.27,2.34-2.3,3.31c-1.03,0.98-2.19,1.8-3.5,2.46c-1.31,0.66-2.72,1.17-4.21,1.52c-1.5,0.35-2.96,0.52-4.38,0.52
		c-2.49,0-4.78-0.5-6.84-1.49c-2.07-0.99-3.85-2.31-5.35-3.95c-1.5-1.64-2.66-3.5-3.48-5.59C91.5,22.39,91.09,20.27,91.09,18.12z"/>
	<path class="st0" d="M151.84,9.65h-9.66v25.57h-9.23V9.65h-9.71V1.6h28.6V9.65z"/>
	<path class="st0" d="M154.39,43.27v-8.05h16.71v8.05H154.39z"/>
	<path class="st0" d="M192.23,35.69c-1.8,0-3.36-0.36-4.69-1.07c-1.33-0.71-2.35-1.74-3.08-3.1V45.3h-9V10.31h7.81v3.74
		c0.88-1.36,1.97-2.4,3.27-3.13c1.29-0.73,2.89-1.09,4.78-1.09c1.64,0,3.17,0.32,4.59,0.97c1.42,0.65,2.63,1.54,3.65,2.68
		c1.01,1.14,1.81,2.49,2.39,4.07c0.58,1.58,0.88,3.28,0.88,5.11c0,1.86-0.27,3.59-0.81,5.18c-0.54,1.59-1.28,2.98-2.22,4.14
		c-0.95,1.17-2.07,2.08-3.36,2.72C195.15,35.37,193.74,35.69,192.23,35.69z M189.1,28.12c0.66,0,1.27-0.14,1.82-0.43
		c0.55-0.28,1.03-0.68,1.42-1.18c0.39-0.5,0.71-1.09,0.95-1.75c0.24-0.66,0.35-1.37,0.35-2.13c0-1.58-0.45-2.84-1.35-3.79
		c-0.9-0.95-2.09-1.42-3.58-1.42c-1.67,0-3.09,0.85-4.26,2.56v4.31c0.44,1.11,1.09,2.02,1.94,2.75
		C187.26,27.75,188.15,28.12,189.1,28.12z"/>
	<path class="st0" d="M223,17.98c-1.74,0-3.32,0.19-4.73,0.57c-1.42,0.38-2.48,1.01-3.17,1.89v14.77h-9V10.31h8.24v4.74
		c0.88-1.67,1.98-2.96,3.29-3.86c1.31-0.9,2.72-1.35,4.24-1.35c0.6,0,0.98,0.02,1.14,0.05V17.98z"/>
	<path class="st0" d="M238.06,35.69c-2.18,0-4.12-0.34-5.82-1.02c-1.7-0.68-3.13-1.6-4.28-2.77c-1.15-1.17-2.03-2.51-2.63-4.02
		c-0.6-1.52-0.9-3.11-0.9-4.78c0-1.8,0.29-3.5,0.88-5.11c0.58-1.61,1.45-3.01,2.6-4.21c1.15-1.2,2.57-2.15,4.26-2.86
		c1.69-0.71,3.65-1.07,5.89-1.07c2.21,0,4.17,0.36,5.87,1.07s3.13,1.66,4.29,2.84c1.15,1.18,2.02,2.56,2.6,4.12s0.88,3.2,0.88,4.9
		c0,0.47-0.02,0.95-0.07,1.44c-0.05,0.49-0.1,0.92-0.17,1.3h-17.47c0.1,1.33,0.58,2.28,1.47,2.86c0.88,0.58,1.85,0.88,2.89,0.88
		c0.98,0,1.9-0.22,2.77-0.66c0.87-0.44,1.44-1.06,1.73-1.85l7.62,2.18c-1.01,1.99-2.57,3.62-4.66,4.88
		C243.7,35.06,241.12,35.69,238.06,35.69z M242.04,20.11c-0.16-1.2-0.6-2.15-1.33-2.84c-0.73-0.69-1.66-1.04-2.79-1.04
		c-1.14,0-2.07,0.35-2.79,1.04c-0.73,0.69-1.17,1.64-1.33,2.84H242.04z"/>
	<path class="st0" d="M264.91,35.69c-2.18,0-4.31-0.36-6.39-1.07s-3.85-1.74-5.3-3.1l3.08-5.4c1.55,1.04,3.04,1.85,4.47,2.41
		c1.44,0.57,2.75,0.85,3.95,0.85c1.26,0,1.89-0.39,1.89-1.18c0-0.44-0.25-0.82-0.73-1.14c-0.49-0.32-1.45-0.68-2.87-1.09
		c-1.77-0.5-3.24-1-4.43-1.49c-1.18-0.49-2.15-1.02-2.89-1.59c-0.74-0.57-1.27-1.2-1.59-1.89c-0.32-0.69-0.47-1.52-0.47-2.46
		c0-1.26,0.25-2.43,0.76-3.5c0.5-1.07,1.21-2,2.11-2.79c0.9-0.79,1.97-1.4,3.22-1.82c1.25-0.43,2.61-0.64,4.1-0.64
		c1.83,0,3.57,0.24,5.23,0.71c1.66,0.47,3.32,1.44,5,2.89l-3.41,5.4c-1.55-1.01-2.84-1.73-3.88-2.15c-1.04-0.43-2.02-0.64-2.94-0.64
		c-0.54,0-0.98,0.1-1.33,0.31c-0.35,0.21-0.52,0.53-0.52,0.97c0,0.47,0.25,0.86,0.76,1.16c0.5,0.3,1.5,0.64,2.98,1.02
		c1.8,0.47,3.31,0.97,4.55,1.49c1.23,0.52,2.22,1.09,2.96,1.7c0.74,0.62,1.27,1.31,1.59,2.08c0.31,0.77,0.47,1.67,0.47,2.68
		c0,1.29-0.24,2.45-0.71,3.46c-0.47,1.01-1.16,1.88-2.06,2.6c-0.9,0.73-1.99,1.28-3.27,1.66S266.52,35.69,264.91,35.69z"/>
	<path class="st0" d="M288.63,35.69c-2.18,0-4.31-0.36-6.39-1.07s-3.85-1.74-5.3-3.1l3.08-5.4c1.55,1.04,3.04,1.85,4.47,2.41
		c1.44,0.57,2.75,0.85,3.95,0.85c1.26,0,1.89-0.39,1.89-1.18c0-0.44-0.25-0.82-0.73-1.14c-0.49-0.32-1.45-0.68-2.87-1.09
		c-1.77-0.5-3.24-1-4.43-1.49c-1.18-0.49-2.15-1.02-2.89-1.59c-0.74-0.57-1.27-1.2-1.59-1.89c-0.32-0.69-0.47-1.52-0.47-2.46
		c0-1.26,0.25-2.43,0.76-3.5s1.21-2,2.11-2.79c0.9-0.79,1.97-1.4,3.22-1.82c1.25-0.43,2.61-0.64,4.1-0.64
		c1.83,0,3.57,0.24,5.23,0.71c1.66,0.47,3.32,1.44,5,2.89l-3.41,5.4c-1.55-1.01-2.84-1.73-3.88-2.15c-1.04-0.43-2.02-0.64-2.94-0.64
		c-0.54,0-0.98,0.1-1.33,0.31c-0.35,0.21-0.52,0.53-0.52,0.97c0,0.47,0.25,0.86,0.76,1.16c0.5,0.3,1.5,0.64,2.98,1.02
		c1.8,0.47,3.31,0.97,4.55,1.49c1.23,0.52,2.22,1.09,2.96,1.7c0.74,0.62,1.27,1.31,1.59,2.08c0.31,0.77,0.47,1.67,0.47,2.68
		c0,1.29-0.24,2.45-0.71,3.46c-0.47,1.01-1.16,1.88-2.06,2.6c-0.9,0.73-1.99,1.28-3.27,1.66S290.24,35.69,288.63,35.69z"/>
</g>
</svg>
